<svg xmlns="http://www.w3.org/2000/svg" width="344" height="344" viewBox="0 0 344 344">
  <g id="user-placeholder" transform="translate(-2151 -143)">
    <rect id="Rectangle_2" data-name="Rectangle 2" width="344" height="344" rx="6" transform="translate(2151 143)" fill="#eaeaea"/>
    <g id="perm_identity_black_24dp" transform="translate(2189 181)">
      <path id="Path_7" data-name="Path 7" d="M0,0H268V268H0Z" fill="none"/>
      <path id="Path_8" data-name="Path 8" d="M93.333,26.333A22.333,22.333,0,1,1,71,48.667,22.4,22.4,0,0,1,93.333,26.333m0,100.5c30.15,0,64.767,14.405,67,22.333v11.167h-134V149.278c2.233-8.04,36.85-22.445,67-22.445M93.333,4A44.667,44.667,0,1,0,138,48.667,44.654,44.654,0,0,0,93.333,4Zm0,100.5C63.518,104.5,4,119.463,4,149.167v33.5H182.667v-33.5C182.667,119.463,123.148,104.5,93.333,104.5Z" transform="translate(40.667 40.667)"/>
    </g>
  </g>
</svg>
